<svg width="130" height="130" viewBox="0 0 130 130" fill="none" xmlns="http://www.w3.org/2000/svg">
<path d="M5 65C5 80.913 11.3214 96.1742 22.5736 107.426C33.8258 118.679 49.087 125 65 125C80.913 125 96.1742 118.679 107.426 107.426C118.679 96.1742 125 80.913 125 65M5 65C5 49.087 11.3214 33.8258 22.5736 22.5736C33.8258 11.3214 49.087 5 65 5C80.913 5 96.1742 11.3214 107.426 22.5736C118.679 33.8258 125 49.087 125 65M5 65H45M125 65H85M45 65C45 70.3043 47.1071 75.3914 50.8579 79.1421C54.6086 82.8929 59.6957 85 65 85C70.3043 85 75.3914 82.8929 79.1421 79.1421C82.8929 75.3914 85 70.3043 85 65M45 65C45 59.6957 47.1071 54.6086 50.8579 50.8579C54.6086 47.1071 59.6957 45 65 45C70.3043 45 75.3914 47.1071 79.1421 50.8579C82.8929 54.6086 85 59.6957 85 65" stroke="#FBFBFB" stroke-opacity="0.2" stroke-width="10" stroke-linecap="round" stroke-linejoin="round"/>
</svg>
