<svg width="435" height="435" viewBox="0 0 435 435" fill="none" xmlns="http://www.w3.org/2000/svg">
<path d="M18 217.5C18 270.411 39.0187 321.154 76.4322 358.568C113.846 395.981 164.589 417 217.5 417C270.411 417 321.154 395.981 358.568 358.568C395.981 321.154 417 270.411 417 217.5M18 217.5C18 164.589 39.0187 113.846 76.4322 76.4322C113.846 39.0187 164.589 18 217.5 18C270.411 18 321.154 39.0187 358.568 76.4322C395.981 113.846 417 164.589 417 217.5M18 217.5H151M417 217.5H284M151 217.5C151 235.137 158.006 252.051 170.477 264.523C182.949 276.994 199.863 284 217.5 284C235.137 284 252.051 276.994 264.523 264.523C276.994 252.051 284 235.137 284 217.5M151 217.5C151 199.863 158.006 182.949 170.477 170.477C182.949 158.006 199.863 151 217.5 151C235.137 151 252.051 158.006 264.523 170.477C276.994 182.949 284 199.863 284 217.5" stroke="#FBFBFB" stroke-opacity="0.4" stroke-width="35" stroke-linecap="round" stroke-linejoin="round"/>
</svg>
