<svg width="93" height="93" viewBox="0 0 93 93" fill="none" xmlns="http://www.w3.org/2000/svg">
<path d="M4 46.5C4 57.7717 8.47767 68.5817 16.448 76.552C24.4183 84.5223 35.2283 89 46.5 89C57.7717 89 68.5817 84.5223 76.552 76.552C84.5223 68.5817 89 57.7717 89 46.5M4 46.5C4 35.2283 8.47767 24.4183 16.448 16.448C24.4183 8.47767 35.2283 4 46.5 4C57.7717 4 68.5817 8.47767 76.552 16.448C84.5223 24.4183 89 35.2283 89 46.5M4 46.5H32.3333M89 46.5H60.6667M32.3333 46.5C32.3333 50.2572 33.8259 53.8606 36.4827 56.5174C39.1394 59.1741 42.7428 60.6667 46.5 60.6667C50.2572 60.6667 53.8606 59.1741 56.5174 56.5174C59.1741 53.8606 60.6667 50.2572 60.6667 46.5M32.3333 46.5C32.3333 42.7428 33.8259 39.1394 36.4827 36.4827C39.1394 33.8259 42.7428 32.3333 46.5 32.3333C50.2572 32.3333 53.8606 33.8259 56.5174 36.4827C59.1741 39.1394 60.6667 42.7428 60.6667 46.5" stroke="black" stroke-opacity="0.2" stroke-width="7" stroke-linecap="round" stroke-linejoin="round"/>
</svg>
