<svg width="268" height="268" viewBox="0 0 268 268" fill="none" xmlns="http://www.w3.org/2000/svg">
<path d="M13 134C13 166.091 25.7482 196.868 48.4401 219.56C71.132 242.252 101.909 255 134 255C166.091 255 196.868 242.252 219.56 219.56C242.252 196.868 255 166.091 255 134M13 134C13 101.909 25.7482 71.132 48.4401 48.4401C71.132 25.7482 101.909 13 134 13C166.091 13 196.868 25.7482 219.56 48.4401C242.252 71.132 255 101.909 255 134M13 134H93.6667M255 134H174.333M93.6667 134C93.6667 144.697 97.9161 154.956 105.48 162.52C113.044 170.084 123.303 174.333 134 174.333C144.697 174.333 154.956 170.084 162.52 162.52C170.084 154.956 174.333 144.697 174.333 134M93.6667 134C93.6667 123.303 97.9161 113.044 105.48 105.48C113.044 97.9161 123.303 93.6667 134 93.6667C144.697 93.6667 154.956 97.9161 162.52 105.48C170.084 113.044 174.333 123.303 174.333 134" stroke="#FBFBFB" stroke-opacity="0.4" stroke-width="25" stroke-linecap="round" stroke-linejoin="round"/>
</svg>
