<svg width="300" height="300" viewBox="0 0 471 471" fill="none" xmlns="http://www.w3.org/2000/svg">
<path d="M25 235.234C25 290.992 47.1496 344.466 86.5762 383.893C126.003 423.319 179.477 445.469 235.234 445.469C290.992 445.469 344.466 423.319 383.893 383.893C423.319 344.466 445.469 290.992 445.469 235.234M25 235.234C25 179.477 47.1496 126.003 86.5762 86.5762C126.003 47.1496 179.477 25 235.234 25C290.992 25 344.466 47.1496 383.893 86.5762C423.319 126.003 445.469 179.477 445.469 235.234M25 235.234H165.156M445.469 235.234H305.312M165.156 235.234C165.156 253.82 172.539 271.645 185.682 284.787C198.824 297.929 216.649 305.312 235.234 305.312C253.82 305.312 271.645 297.929 284.787 284.787C297.929 271.645 305.312 253.82 305.312 235.234M165.156 235.234C165.156 216.649 172.539 198.824 185.682 185.682C198.824 172.539 216.649 165.156 235.234 165.156C253.82 165.156 271.645 172.539 284.787 185.682C297.929 198.824 305.312 216.649 305.312 235.234" stroke="#FBFBFB" stroke-opacity="0.4" stroke-width="50" stroke-linecap="round" stroke-linejoin="round"/>
</svg>
